<svg width="35" height="50" viewBox="0 0 35 50" fill="none" xmlns="http://www.w3.org/2000/svg">
<path d="M33.7969 0.0546956C33.9415 0.121102 34.1096 0.296883 34.1643 0.441414C34.1956 0.519539 34.2073 3.59766 34.2073 10.6094C34.2073 19.0625 34.1995 20.6875 34.1526 20.793C34.09 20.9453 33.9142 21.1133 33.7657 21.168C33.6953 21.1953 33.1756 21.2109 32.3471 21.2109H31.034L31.0575 22.1406C31.0731 22.6484 31.1005 24.2891 31.12 25.7813C31.1435 27.2734 31.1786 29.6211 31.1982 30.9961C31.2177 32.3711 31.2529 34.6641 31.2763 36.0938C31.331 39.7812 31.3858 43.2109 31.4366 46.4727C31.4835 49.5469 31.4874 49.4609 31.2646 49.7148C31.0106 50.0039 31.0614 50 28.873 50C27.0675 50 26.9073 49.9922 26.7627 49.9258C26.5673 49.8359 26.368 49.6172 26.3094 49.418C26.2742 49.3047 26.2742 46.5664 26.3094 37.9453C26.3328 31.7148 26.3523 25.4023 26.3523 23.9141V21.2109H25.0471C24.2186 21.2109 23.6989 21.1953 23.6285 21.168C23.48 21.1133 23.3042 20.9453 23.2416 20.793C23.1947 20.6875 23.1869 19.0625 23.1869 10.6094C23.1869 3.59766 23.1987 0.519539 23.2299 0.441414C23.2846 0.292977 23.4527 0.117196 23.6051 0.0546956C23.6793 0.0234456 23.8669 8.10623e-06 24.0545 8.10623e-06C24.4414 8.10623e-06 24.6524 0.0820393 24.7931 0.277352L24.8869 0.410164L24.9064 5.11719C24.926 9.78126 24.926 9.82422 25.008 9.97657C25.1292 10.207 25.262 10.293 25.5121 10.293C25.6919 10.293 25.7388 10.2773 25.8482 10.1758C26.0944 9.94532 26.0788 10.2383 26.0788 5.18751C26.0788 0.75782 26.0827 0.558602 26.153 0.406258C26.1921 0.316414 26.2937 0.195321 26.3758 0.132821C26.5165 0.0234456 26.5438 0.0195394 26.9893 0.0078206C27.5716 -0.0117106 27.6849 0.0117269 27.8647 0.167977C28.1265 0.398446 28.1109 0.0820393 28.1109 5.16798V9.78907L28.1969 9.96094C28.4235 10.4063 28.9316 10.4258 29.1817 10C29.2638 9.86329 29.2638 9.81641 29.2833 5.15626L29.3028 0.449227L29.3927 0.304696C29.4474 0.218758 29.5529 0.128914 29.6545 0.0781331C29.8109 0.00391436 29.8812 -0.00389814 30.3502 0.0078206C30.8543 0.0195394 30.8777 0.0234456 31.0145 0.128914C31.3193 0.359383 31.292 -0.0663981 31.3154 5.19532C31.331 8.67188 31.3467 9.92188 31.3818 9.98047C31.6202 10.3945 32.1322 10.4141 32.3588 10.0156L32.4487 9.86329V5.30469C32.4487 2.20704 32.4604 0.683602 32.4917 0.550789C32.5777 0.152352 32.8161 8.10623e-06 33.3475 0.00391436C33.539 0.00391436 33.7305 0.0234456 33.7969 0.0546956Z" fill="black"/>
<path d="M9.87659 0.335949C11.1936 0.574231 12.577 1.4297 13.7767 2.75392C15.9026 5.09767 17.4775 8.67188 17.794 11.8711C18.1379 15.375 16.3677 18.6992 13.2609 20.3906C12.7763 20.6524 12.28 20.8672 11.7837 21.0234L11.3811 21.1524L11.4046 22.168C11.4163 22.7266 11.4437 24.2305 11.4632 25.5078C11.4867 26.7852 11.5179 28.8594 11.5414 30.1172C11.5609 31.375 11.5961 33.4492 11.6195 34.7266C11.6742 37.8828 11.7289 41.0273 11.7797 43.9063C11.8032 45.2266 11.8227 47.0234 11.8266 47.8945L11.8345 49.4766L11.7211 49.6406C11.6508 49.7422 11.5375 49.8398 11.4124 49.9023L11.2131 50H8.98558H6.75416L6.55094 49.9063C6.41026 49.8398 6.31647 49.7578 6.23831 49.6445L6.12889 49.4766L6.1328 48.1484C6.1367 47.4141 6.16015 45.8828 6.1836 44.7461C6.20705 43.6055 6.24613 41.832 6.26566 40.8008C6.28911 39.7695 6.32428 38.0742 6.34382 37.0313C6.38681 34.9648 6.43761 32.4453 6.50014 29.375C6.52359 28.2891 6.55876 26.5938 6.5783 25.6055C6.59784 24.6172 6.6291 23.2109 6.64083 22.4805L6.66818 21.1524L6.26176 21.0195C4.13194 20.332 2.2874 18.7813 1.22835 16.793C-0.0221865 14.4414 -0.0847133 11.7266 1.03686 8.44142C2.37728 4.51564 4.89789 1.40236 7.43804 0.535168C8.17664 0.281262 9.1419 0.203137 9.87659 0.335949Z" fill="black"/>
</svg>
