<svg width="44" height="44" viewBox="0 0 44 44" fill="none" xmlns="http://www.w3.org/2000/svg">
<path d="M42.819 7.54107C42.8743 7.69027 42.8688 7.93339 42.8053 8.07428C42.7722 8.15163 40.6039 10.3365 35.6459 15.2945C29.6686 21.2718 28.514 22.4153 28.4063 22.4567C28.2543 22.5202 28.0112 22.5146 27.8675 22.4483C27.7985 22.4179 27.4199 22.0614 26.8341 21.4756L25.9056 20.5471L25.2648 21.2211C24.9168 21.5912 23.776 22.7707 22.7347 23.8396C21.6961 24.9113 20.061 26.5963 19.1025 27.5823C18.1441 28.5684 16.5476 30.2147 15.5532 31.2422C12.9844 33.8883 10.598 36.3522 8.3275 38.6945C6.18686 40.9014 6.25039 40.8434 5.91334 40.8655C5.52932 40.8903 5.56801 40.9234 4.02055 39.376C2.7439 38.0993 2.63612 37.9805 2.58084 37.8313C2.5062 37.6296 2.51995 37.334 2.61937 37.1517C2.6746 37.0467 4.61086 35.1104 10.7318 29.0393C15.1539 24.6502 19.6314 20.2004 20.6837 19.1481L22.5951 17.2367L21.6722 16.3137C21.0864 15.7279 20.7299 15.3493 20.6995 15.2803C20.6332 15.1366 20.6276 14.8935 20.6911 14.7415C20.7325 14.6338 21.876 13.4792 27.8533 7.50195C32.8113 2.54392 34.9962 0.375645 35.0735 0.342509C35.2172 0.276234 35.4603 0.270761 35.6123 0.334336C35.6869 0.364742 35.8361 0.480809 35.9687 0.613448C36.2423 0.887017 36.3335 1.09424 36.2949 1.33183L36.2673 1.49206L32.9527 4.83425C29.6685 8.14606 29.6382 8.17644 29.5885 8.34219C29.5112 8.59082 29.5443 8.74554 29.7212 8.92239C29.8483 9.04951 29.8925 9.07162 30.0417 9.07717C30.3788 9.0883 30.1605 9.2844 33.732 5.71296C36.8643 2.5807 37.0079 2.4426 37.1653 2.38461C37.2565 2.34872 37.414 2.33494 37.5162 2.34877C37.693 2.37091 37.7151 2.38749 38.0384 2.69423C38.464 3.09215 38.5275 3.18886 38.5442 3.42646C38.5663 3.77456 38.779 3.53978 35.1827 7.13608L31.9151 10.4037L31.8544 10.586C31.6998 11.0612 32.0452 11.4342 32.5231 11.31C32.6778 11.2713 32.711 11.2382 36.02 7.95679L39.3622 4.64223L39.528 4.60359C39.6274 4.58151 39.7655 4.59259 39.8733 4.62853C40.0363 4.68658 40.0916 4.7308 40.4149 5.07068C40.7631 5.43543 40.7769 5.45478 40.799 5.62607C40.8516 6.00458 41.1333 5.68416 37.4293 9.42134C34.9821 11.8907 34.1092 12.7856 34.0927 12.8519C33.9685 13.3133 34.3166 13.6891 34.7586 13.5676L34.9299 13.5235L38.1533 10.3C40.3437 8.10967 41.4292 7.04072 41.5453 6.96892C41.8878 6.74797 42.1641 6.80881 42.5371 7.18738C42.6725 7.32279 42.7941 7.472 42.819 7.54107Z" fill="black"/>
<path d="M4.97022 2.14233C5.031 2.12574 5.16085 2.13952 5.2603 2.17265L5.4371 2.2334L17.0602 13.8565C27.3546 24.1509 28.6832 25.4906 28.7191 25.5983C28.744 25.6784 28.7329 25.7668 28.6832 25.8553C28.6223 25.9713 28.5781 26.0045 28.3516 26.1095C28.2051 26.1731 28.0863 26.2366 28.0863 26.2477C28.0891 26.267 34.5497 32.6448 37.6268 35.6665L39.4111 37.4177L39.4718 37.6056C39.5133 37.741 39.5105 37.8487 39.469 37.9786C39.4109 38.1637 39.4109 38.1637 37.9381 39.6365C36.7554 40.8192 36.4376 41.1204 36.3354 41.1619C36.1862 41.2227 35.9182 41.2089 35.7939 41.1344C35.7442 41.1068 35.1006 40.4521 34.3659 39.6787C33.6284 38.9081 31.5292 36.7039 29.6979 34.7842C27.8666 32.8645 25.8033 30.7017 25.1128 29.978C24.4195 29.2571 23.7483 28.5472 23.6158 28.4036L23.381 28.1412L23.0632 28.2711C22.7206 28.4148 22.4195 28.4508 22.1874 28.379C21.878 28.2741 22.0659 28.473 19.2182 25.2661C15.6634 21.2692 13.1831 18.3301 12.0093 16.7308C10.7139 14.9657 8.43826 11.2144 5.43632 5.9023C4.07481 3.49073 4.04995 3.43824 4.09423 3.10671C4.11637 2.94646 4.13571 2.9216 4.48665 2.5596C4.77128 2.26393 4.87905 2.16721 4.97022 2.14233Z" fill="black"/>
</svg>
